<svg version="1.1" id="Layer_1" xmlns="http://www.w3.org/2000/svg" xmlns:xlink="http://www.w3.org/1999/xlink" x="0px" y="0px"
	 width="100%" viewBox="0 0 500 500" enable-background="new 0 0 500 500" xml:space="preserve">
<path fill="#FEFFFF" opacity="1.000000" stroke="none" 
	d="
M284.000000,501.000000 
	C189.333359,501.000000 95.166710,501.000000 1.000051,501.000000 
	C1.000034,334.333405 1.000034,167.666794 1.000017,1.000140 
	C167.666565,1.000093 334.333130,1.000093 500.999756,1.000047 
	C500.999847,167.666519 500.999847,334.333038 500.999939,500.999786 
	C428.833344,501.000000 356.666656,501.000000 284.000000,501.000000 
M347.787262,262.632996 
	C347.508575,262.426880 347.229858,262.220734 346.415619,261.681488 
	C345.276031,260.743286 344.136414,259.805054 342.715668,258.423431 
	C342.389496,258.325378 342.063324,258.227325 341.349670,258.128021 
	C341.349670,258.128021 341.007965,257.945282 340.902222,257.292572 
	C339.915222,257.254456 338.928223,257.216339 337.158600,257.221130 
	C336.115723,257.173065 335.072845,257.125000 333.550659,256.507263 
	C330.754028,255.787125 328.098297,255.417313 326.999664,259.022461 
	C326.999664,259.022461 327.099243,259.085205 326.301056,259.026398 
	C323.265167,259.156830 322.759766,260.992584 323.302155,264.032806 
	C323.189636,264.356812 323.077148,264.680817 322.481293,265.369995 
	C322.627838,266.243500 322.774384,267.117035 323.111420,268.572449 
	C323.194305,269.177063 323.277222,269.781708 323.197845,271.149567 
	C323.846924,271.744049 324.496033,272.338531 325.578522,273.065186 
	C325.578522,273.065186 325.933960,273.346130 326.080536,274.058380 
	C326.868622,275.682159 327.656708,277.305969 327.873871,278.899475 
	C327.754974,278.750549 327.636078,278.601624 326.680878,278.186340 
	C325.150604,278.532715 323.620331,278.879089 322.078247,279.970123 
	C322.726501,289.392090 335.243927,292.379425 342.583435,289.973297 
	C346.319183,288.748566 349.213379,286.760803 350.037445,282.727020 
	C350.875580,278.624237 349.913300,275.117920 346.031311,272.127075 
	C347.070740,271.104553 347.987793,269.901306 349.175232,269.097351 
	C351.599182,267.456299 351.950958,266.196167 348.938812,264.989441 
	C348.938812,264.989441 348.884521,265.118988 348.941956,264.473816 
	C348.567017,264.013000 348.192047,263.552155 347.908417,263.070007 
	C347.908417,263.070007 347.883179,263.160309 347.787262,262.632996 
M382.987610,290.000244 
	C382.987610,290.000244 382.933533,289.917999 383.686249,289.855469 
	C384.101074,289.210297 384.893524,288.553040 384.873352,287.921753 
	C384.625793,280.184174 384.518646,272.427399 383.837463,264.723175 
	C383.334106,259.029724 376.494446,255.220703 370.329620,257.135498 
	C369.892700,257.108826 369.455780,257.082184 368.532715,256.498413 
	C365.722687,255.773712 363.098724,255.510773 361.801178,259.301697 
	C361.801178,259.301697 361.503998,259.298889 360.732635,259.169342 
	C358.854584,261.626190 356.976562,264.083069 355.098541,266.539948 
	C356.757782,267.777802 358.467957,268.955048 360.049774,270.285004 
	C360.635376,270.777374 360.919312,271.628601 361.282074,272.304779 
	C361.282074,272.304779 361.230927,272.335846 360.497345,272.141510 
	C359.667877,272.782928 358.838440,273.424347 357.663208,274.490631 
	C357.170105,275.023743 356.677032,275.556885 355.558533,276.086426 
	C355.429535,276.740784 355.300537,277.395142 355.176208,278.708618 
	C355.099274,279.140411 355.022339,279.572235 354.424072,280.526764 
	C354.923065,282.356171 355.422058,284.185577 356.270020,286.403290 
	C356.559479,286.834686 356.848907,287.266113 357.282410,288.299011 
	C357.633881,288.480194 357.985321,288.661407 358.910706,289.003998 
	C359.596375,289.396454 360.282043,289.788910 361.187683,290.931488 
	C361.408447,291.165314 361.625244,291.599396 361.850525,291.603790 
	C368.296417,291.730713 374.743561,291.865692 381.189178,291.818146 
	C381.770752,291.813812 382.343323,290.586700 382.987610,290.000244 
M218.704208,300.964081 
	C218.510406,300.291626 218.316605,299.619202 217.607193,298.753387 
	C217.440247,298.677094 217.273285,298.600800 216.919022,298.009247 
	C215.619019,298.197327 214.319000,298.385406 212.140030,298.684601 
	C210.760635,299.455231 208.280670,300.114807 208.189804,301.015472 
	C207.765884,305.216217 208.001846,309.483551 208.001846,314.283752 
	C212.100021,314.090698 215.357925,313.937256 218.615814,313.783783 
	C218.614014,313.233917 218.612213,312.684052 218.610413,312.134186 
	C216.415054,311.289124 214.219696,310.444061 210.788467,309.123322 
	C214.234131,307.919464 215.971344,307.312531 217.708572,306.705566 
	C217.689255,306.328339 217.669937,305.951080 217.650620,305.573822 
	C216.121841,305.326660 214.593063,305.079498 213.141998,304.176910 
	C214.465820,303.291656 215.789642,302.406403 217.619568,301.276489 
	C217.792877,301.205261 217.966187,301.134033 218.704208,300.964081 
M159.879303,306.433655 
	C159.715347,307.581207 159.551376,308.728790 159.474304,310.394592 
	C159.485184,310.569397 159.496078,310.744202 158.958878,311.131348 
	C159.705444,312.372833 160.320572,314.550537 161.223633,314.677307 
	C163.761581,315.033630 166.827759,317.986237 169.441788,313.428284 
	C173.508301,310.415100 171.842896,307.598633 169.086105,304.890076 
	C171.804031,301.613861 171.385773,299.969543 167.587799,298.690369 
	C161.842850,296.755432 158.913559,299.564819 159.879303,306.433655 
M286.521942,264.708679 
	C286.521942,273.104675 286.521942,281.500671 286.521942,290.352661 
	C289.541473,290.214325 291.946808,290.104095 294.604614,289.982330 
	C294.604614,279.151093 294.604614,268.801727 294.604614,256.779907 
	C291.341797,258.141907 289.104401,259.075867 286.806915,260.804291 
	C286.833282,261.864777 286.859680,262.925232 286.521942,264.708679 
M228.645752,290.012848 
	C229.095840,289.942413 229.545944,289.871979 230.734085,289.708557 
	C230.917603,283.450439 231.341827,277.188141 231.234222,270.935028 
	C231.014191,258.149567 224.118973,254.097916 212.590942,259.729706 
	C212.403687,259.821198 212.030380,259.531799 211.147461,259.187683 
	C211.147461,255.184052 211.147461,250.954849 211.147461,246.711639 
	C208.306870,246.711639 206.073853,246.711639 203.746017,246.711639 
	C203.746017,261.284241 203.746017,275.480225 203.746017,289.743073 
	C206.419861,289.743073 208.670288,289.743073 211.435333,289.743073 
	C211.435333,283.631378 211.288681,277.827972 211.476654,272.035461 
	C211.664124,266.258392 213.820724,263.802490 218.092087,263.938293 
	C223.543106,264.111572 223.231644,268.249786 223.319351,271.865875 
	C223.463104,277.792297 223.358246,283.724731 223.358246,289.863159 
	C225.371017,289.863159 226.671448,289.863159 228.645752,290.012848 
M113.802864,182.563507 
	C97.171120,179.695969 85.229401,184.857742 78.437050,198.248413 
	C73.140968,208.689301 73.476318,223.706055 86.158730,235.486023 
	C97.253922,245.791733 107.739914,256.757446 118.404427,267.521362 
	C126.833313,276.028809 135.390793,284.434052 143.375900,293.346313 
	C148.060898,298.575287 147.449966,307.426544 143.112030,312.845490 
	C138.427094,318.697906 129.908096,321.745331 124.015434,317.763062 
	C116.977409,313.006744 111.074303,306.532043 104.931610,300.543152 
	C104.224747,299.853973 104.776321,297.367340 105.347504,295.958649 
	C108.394798,288.443115 106.658134,281.092621 100.610214,276.793060 
	C95.342911,273.048462 87.221962,273.308502 82.402252,277.376099 
	C76.503563,282.354340 75.021797,290.018799 78.659134,296.737946 
	C82.018761,302.944122 88.767685,305.461029 96.253014,303.858704 
	C98.089973,303.465515 100.805428,304.091461 102.207848,305.302063 
	C107.490868,309.862518 112.174965,315.121979 117.499771,319.627563 
	C125.451149,326.355621 139.388687,324.677979 145.822678,316.601624 
	C153.781403,306.611359 152.970993,295.850861 143.407349,286.242981 
	C126.974319,269.733948 110.443710,253.321838 94.053535,236.770523 
	C90.099625,232.777710 85.610664,228.905853 82.975716,224.097275 
	C76.663834,212.578629 80.294655,198.141022 90.367081,190.985779 
	C101.311584,183.210999 115.666016,184.860184 125.220009,194.914841 
	C128.202225,198.053314 131.442459,200.948395 134.392120,204.115524 
	C137.129181,207.054337 139.207047,206.594116 141.790527,203.751968 
	C145.253036,199.942764 149.040802,196.408249 152.872391,192.959656 
	C162.514542,184.281296 175.946930,183.846405 186.304214,191.736084 
	C195.909286,199.052765 199.180374,213.200073 192.860001,224.095917 
	C190.410248,228.319092 186.414246,232.877060 182.079636,234.504486 
	C174.372818,237.398010 171.186111,235.083939 167.350861,227.424683 
	C166.828949,226.382401 166.345352,225.313309 165.733215,224.325272 
	C164.074295,221.647736 162.487640,221.044312 160.829102,224.421921 
	C158.555038,229.052933 156.225540,233.662445 153.723389,238.172211 
	C152.991714,239.490952 151.591766,240.438919 150.498108,241.556824 
	C149.563599,240.488235 148.568985,239.465485 147.710037,238.339264 
	C146.674026,236.980881 145.753143,235.534698 144.981583,234.415405 
	C141.920059,236.870544 139.374557,238.911865 136.829071,240.953186 
	C135.066833,237.760071 133.305115,234.566650 131.541916,231.374054 
	C131.139923,230.646149 130.729095,229.923096 130.328644,229.194351 
	C128.956070,226.696533 127.586304,224.197159 125.472862,220.344727 
	C123.447182,223.909561 122.011932,225.898453 121.123810,228.107330 
	C119.127815,233.071594 116.283890,236.117783 110.300812,235.043900 
	C108.261200,234.677811 105.980736,235.653625 103.810318,236.016296 
	C103.853157,236.882660 103.895988,237.749023 103.938820,238.615387 
	C107.526855,238.761307 111.122734,238.805344 114.700760,239.081100 
	C118.475441,239.372025 121.411865,238.840179 122.988663,234.629791 
	C124.171814,231.470520 126.337120,231.670364 127.900772,234.652634 
	C130.371918,239.365723 132.665710,244.173386 135.211166,248.844803 
	C135.842392,250.003235 137.027756,251.246460 138.199799,251.566483 
	C138.820999,251.736099 140.088989,250.103638 140.836151,249.112228 
	C141.955521,247.626923 142.873459,245.989807 143.836456,244.480881 
	C144.805267,244.978882 145.163040,245.066696 145.382050,245.290375 
	C147.405182,247.356552 149.404358,249.446167 151.410477,251.528992 
	C153.112396,248.710449 154.830994,245.901764 156.504532,243.066483 
	C156.923416,242.356827 157.155212,241.539062 157.545425,240.809753 
	C159.204315,237.709351 160.890427,234.623520 163.101837,230.545273 
	C164.694351,233.148849 165.528381,234.708115 166.556152,236.127029 
	C167.299561,237.153351 168.323166,238.812851 169.182526,238.788742 
	C177.134308,238.565750 185.391006,241.489334 192.083939,233.330032 
	C201.076508,222.367249 203.328415,208.151321 196.270370,196.292526 
	C189.328537,184.628998 175.272308,179.160828 161.657501,182.598663 
	C153.211472,184.731308 147.777267,190.904388 142.217163,196.802353 
	C138.992844,200.222595 136.783600,200.029984 133.710999,196.698822 
	C128.290192,190.821915 122.637062,185.103195 113.802864,182.563507 
M188.925827,247.553940 
	C179.489288,243.928635 169.805603,245.645142 164.027328,251.967422 
	C157.938019,258.630035 156.569916,271.310608 160.984650,280.169128 
	C164.753967,287.732574 172.621689,291.624451 182.367142,290.746277 
	C191.256271,289.945221 197.650238,283.637970 197.188812,274.780640 
	C194.068954,275.826080 190.086304,275.935059 188.638260,277.906097 
	C185.799377,281.770355 182.598694,283.437286 178.134506,283.140289 
	C173.545837,282.834991 170.393921,280.357880 168.680420,276.124603 
	C166.444473,270.600647 166.550232,265.019226 169.027740,259.655914 
	C172.296722,252.579285 182.479340,250.608017 186.847656,256.634247 
	C190.046829,261.047607 193.436203,260.403839 197.757462,259.752960 
	C197.274689,253.958649 194.249954,250.360046 188.925827,247.553940 
M281.690186,288.496246 
	C277.231201,283.000183 272.772186,277.504120 267.458984,270.955200 
	C272.273651,266.783691 276.757050,262.899170 281.410309,258.867462 
	C271.185211,254.468872 267.769440,263.946808 260.706909,268.225555 
	C260.706909,260.351135 260.706909,253.513809 260.706909,246.806778 
	C252.686066,245.829224 252.688721,245.829224 252.690842,252.943207 
	C252.692520,258.606598 252.685577,264.269989 252.684509,269.933380 
	C252.683273,276.520691 252.684250,283.108002 252.684250,289.840698 
	C255.635025,289.840698 257.887268,289.840698 260.389771,289.840698 
	C260.622772,285.548462 260.840912,281.529968 261.059052,277.511444 
	C261.480042,277.359772 261.901031,277.208130 262.322021,277.056458 
	C265.062286,280.257233 267.799225,283.460907 270.543732,286.658020 
	C273.900299,290.568176 276.398895,291.092896 281.690186,288.496246 
M413.368347,263.832275 
	C415.269135,262.361084 417.169922,260.889862 419.303680,259.238373 
	C408.368256,254.414795 404.988159,263.970673 397.875549,268.357697 
	C397.875549,260.380768 397.875549,253.540878 397.875549,246.709076 
	C394.804138,246.709076 392.571106,246.709076 389.935638,246.709076 
	C389.935638,254.235260 389.935608,261.380798 389.935608,268.526367 
	C389.935608,275.617096 389.935638,282.707825 389.935638,289.634277 
	C393.022827,289.634277 395.257874,289.634277 398.226379,289.634277 
	C398.226379,285.077393 398.226379,280.919739 398.226379,276.762085 
	C401.773743,279.383789 404.159393,282.316589 406.541443,285.252289 
	C410.907806,290.633606 412.120605,291.023376 419.593292,289.172028 
	C414.850800,283.423584 410.234650,277.828247 404.824310,271.270264 
	C407.635345,268.851227 410.259338,266.593140 413.368347,263.832275 
M303.969452,251.517059 
	C303.969452,253.473755 303.969452,255.430450 303.969452,257.619751 
	C298.943268,257.565186 298.354340,260.111725 299.582214,263.792114 
	C300.947876,264.172760 302.329681,264.557861 303.976562,265.016907 
	C303.976562,270.989990 303.858368,276.801636 304.011475,282.606140 
	C304.150726,287.885986 306.042297,289.700348 311.341095,290.008820 
	C313.424652,290.130096 315.521179,290.028717 317.658264,290.028717 
	C317.658264,287.503326 317.658264,285.749115 317.658264,285.409576 
	C315.162598,283.177002 312.355347,281.878876 312.163971,280.269684 
	C311.561737,275.206055 311.942169,270.025513 311.942169,264.764465 
	C314.100983,264.447113 315.855682,264.189178 317.698242,263.918304 
	C317.698242,261.987366 317.698242,260.234497 317.698242,258.256866 
	C315.710876,258.022583 313.971130,257.817474 311.913940,257.574982 
	C311.913940,255.151978 311.838318,253.011795 311.932678,250.879135 
	C312.056671,248.076462 311.734131,246.133804 308.022888,246.170822 
	C304.628174,246.204712 303.545685,247.511902 303.969452,251.517059 
M237.920090,267.538330 
	C237.920090,274.931000 237.920090,282.323669 237.920090,289.678894 
	C240.952972,289.678894 243.172501,289.678894 245.425995,289.678894 
	C245.425995,278.959351 245.425995,268.628601 245.425995,258.310364 
	C242.762405,258.310364 240.535233,258.310364 237.918961,258.310364 
	C237.918961,261.295319 237.918961,263.923431 237.920090,267.538330 
M177.747726,304.005890 
	C176.583542,307.181244 175.419373,310.356567 174.255188,313.531921 
	C174.496078,313.966064 174.736984,314.400177 174.977875,314.834320 
	C179.387589,311.760498 183.803635,310.008148 188.536072,314.409943 
	C187.607361,309.975494 186.419632,306.413116 184.950272,302.970947 
	C184.240494,301.308167 183.001205,299.871399 182.001663,298.332306 
	C180.671844,299.985504 179.342026,301.638733 177.747726,304.005890 
M264.820190,299.410767 
	C264.721985,302.394714 264.401154,305.393890 264.604309,308.357178 
	C264.738281,310.310638 265.288544,313.644562 266.239899,313.868896 
	C269.100891,314.543518 272.249756,313.997253 275.286285,313.927277 
	C275.308014,313.294067 275.329742,312.660858 275.351471,312.027649 
	C273.074951,311.419983 270.798401,310.812317 268.521851,310.204651 
	C268.542847,309.837311 268.563812,309.469971 268.584808,309.102631 
	C270.611694,308.249878 272.638611,307.397125 275.622253,306.141846 
	C272.177887,305.010254 270.081909,304.321655 266.910553,303.279724 
	C270.668671,302.026184 273.064484,301.227051 275.460297,300.427917 
	C275.310822,299.875397 275.161346,299.322845 275.011841,298.770294 
	C271.797089,298.770294 268.582306,298.770294 264.820190,299.410767 
M191.358826,298.634796 
	C192.787491,303.582214 194.182495,308.541107 195.837997,313.411438 
	C195.879593,313.533813 199.690033,313.158966 200.206207,312.194031 
	C201.983612,308.871552 203.178528,305.216614 204.360107,301.611267 
	C204.645813,300.739502 204.027863,299.571564 203.825455,298.539825 
	C202.817719,299.112183 201.341858,299.442078 200.894958,300.304932 
	C199.800491,302.418060 199.181061,304.777252 197.868271,308.437775 
	C196.734650,305.408508 196.303223,303.518372 195.353470,301.940216 
	C194.524994,300.563507 193.112289,299.538330 191.358826,298.634796 
M254.802444,303.592407 
	C257.029938,302.443481 259.257446,301.294556 261.484924,300.145599 
	C261.426575,299.593689 261.368225,299.041779 261.309906,298.489868 
	C258.202393,298.489868 254.873520,297.846039 252.094589,298.801575 
	C250.957275,299.192657 250.850311,303.022125 250.568222,305.323364 
	C250.328278,307.280701 250.303040,309.320190 250.589127,311.263489 
	C250.740158,312.289429 251.758835,313.187653 252.385757,314.143524 
	C253.046249,313.365875 254.270386,312.586853 254.268448,311.810883 
	C254.260574,308.661438 255.952438,307.871002 258.671722,307.783905 
	C259.354950,307.762054 260.010193,306.864197 261.433807,305.808838 
	C258.662750,305.211700 256.830444,304.816833 254.802444,303.592407 
M233.088608,304.507690 
	C232.936203,302.501373 232.783798,300.495026 232.631393,298.488708 
	C232.009598,298.485443 231.387817,298.482147 230.766022,298.478882 
	C228.418350,303.316620 230.060135,308.525665 230.186813,314.402069 
	C233.562744,314.177551 236.583145,313.976685 239.603531,313.775818 
	C239.748108,313.243744 239.892685,312.711670 240.037247,312.179596 
	C236.769180,310.769958 231.199951,311.401825 233.088608,304.507690 
M237.445312,252.290268 
	C239.496765,254.941010 242.293716,255.710190 244.734085,253.582626 
	C245.944336,252.527512 246.686493,249.376205 245.975784,248.101089 
	C245.215057,246.736267 242.431046,245.720612 240.646088,245.876907 
	C237.503616,246.152084 236.310913,248.531677 237.445312,252.290268 
M288.176575,254.578110 
	C290.543854,253.453674 293.028046,252.494751 295.137115,251.004807 
	C295.414948,250.808533 293.894165,246.583893 293.002075,246.503891 
	C290.721771,246.299408 287.804626,246.728592 286.093353,248.095245 
	C283.206146,250.401001 285.997253,252.300354 288.176575,254.578110 
M246.114609,304.618683 
	C245.916733,302.544067 245.718842,300.469452 245.424103,297.379333 
	C242.167267,301.706848 242.296951,311.245911 246.108978,313.919586 
	C246.108978,311.131989 246.108978,308.344360 246.114609,304.618683 
z"/>
<path fill="#9AC25F" opacity="1.000000" stroke="none" 
	d="
M114.187317,182.680084 
	C122.637062,185.103195 128.290192,190.821915 133.710999,196.698822 
	C136.783600,200.029984 138.992844,200.222595 142.217163,196.802353 
	C147.777267,190.904388 153.211472,184.731308 161.657501,182.598663 
	C175.272308,179.160828 189.328537,184.628998 196.270370,196.292526 
	C203.328415,208.151321 201.076508,222.367249 192.083939,233.330032 
	C185.391006,241.489334 177.134308,238.565750 169.182526,238.788742 
	C168.323166,238.812851 167.299561,237.153351 166.556152,236.127029 
	C165.528381,234.708115 164.694351,233.148849 163.101837,230.545273 
	C160.890427,234.623520 159.204315,237.709351 157.545425,240.809753 
	C157.155212,241.539062 156.923416,242.356827 156.504532,243.066483 
	C154.830994,245.901764 153.112396,248.710449 151.410477,251.528992 
	C149.404358,249.446167 147.405182,247.356552 145.382050,245.290375 
	C145.163040,245.066696 144.805267,244.978882 143.836456,244.480881 
	C142.873459,245.989807 141.955521,247.626923 140.836151,249.112228 
	C140.088989,250.103638 138.820999,251.736099 138.199799,251.566483 
	C137.027756,251.246460 135.842392,250.003235 135.211166,248.844803 
	C132.665710,244.173386 130.371918,239.365723 127.900772,234.652634 
	C126.337120,231.670364 124.171814,231.470520 122.988663,234.629791 
	C121.411865,238.840179 118.475441,239.372025 114.700760,239.081100 
	C111.122734,238.805344 107.526855,238.761307 103.938820,238.615387 
	C103.895988,237.749023 103.853157,236.882660 103.810318,236.016296 
	C105.980736,235.653625 108.261200,234.677811 110.300812,235.043900 
	C116.283890,236.117783 119.127815,233.071594 121.123810,228.107330 
	C122.011932,225.898453 123.447182,223.909561 125.472862,220.344727 
	C127.586304,224.197159 128.956070,226.696533 130.328644,229.194351 
	C130.729095,229.923096 131.139923,230.646149 131.541916,231.374054 
	C133.305115,234.566650 135.066833,237.760071 136.829071,240.953186 
	C139.374557,238.911865 141.920059,236.870544 144.981583,234.415405 
	C145.753143,235.534698 146.674026,236.980881 147.710037,238.339264 
	C148.568985,239.465485 149.563599,240.488235 150.498108,241.556824 
	C151.591766,240.438919 152.991714,239.490952 153.723389,238.172211 
	C156.225540,233.662445 158.555038,229.052933 160.829102,224.421921 
	C162.487640,221.044312 164.074295,221.647736 165.733215,224.325272 
	C166.345352,225.313309 166.828949,226.382401 167.350861,227.424683 
	C171.186111,235.083939 174.372818,237.398010 182.079636,234.504486 
	C186.414246,232.877060 190.410248,228.319092 192.860001,224.095917 
	C199.180374,213.200073 195.909286,199.052765 186.304214,191.736084 
	C175.946930,183.846405 162.514542,184.281296 152.872391,192.959656 
	C149.040802,196.408249 145.253036,199.942764 141.790527,203.751968 
	C139.207047,206.594116 137.129181,207.054337 134.392120,204.115524 
	C131.442459,200.948395 128.202225,198.053314 125.220009,194.914841 
	C115.666016,184.860184 101.311584,183.210999 90.367081,190.985779 
	C80.294655,198.141022 76.663834,212.578629 82.975716,224.097275 
	C85.610664,228.905853 90.099625,232.777710 94.053535,236.770523 
	C110.443710,253.321838 126.974319,269.733948 143.407349,286.242981 
	C152.970993,295.850861 153.781403,306.611359 145.822678,316.601624 
	C139.388687,324.677979 125.451149,326.355621 117.499771,319.627563 
	C112.174965,315.121979 107.490868,309.862518 102.207848,305.302063 
	C100.805428,304.091461 98.089973,303.465515 96.253014,303.858704 
	C88.767685,305.461029 82.018761,302.944122 78.659134,296.737946 
	C75.021797,290.018799 76.503563,282.354340 82.402252,277.376099 
	C87.221962,273.308502 95.342911,273.048462 100.610214,276.793060 
	C106.658134,281.092621 108.394798,288.443115 105.347504,295.958649 
	C104.776321,297.367340 104.224747,299.853973 104.931610,300.543152 
	C111.074303,306.532043 116.977409,313.006744 124.015434,317.763062 
	C129.908096,321.745331 138.427094,318.697906 143.112030,312.845490 
	C147.449966,307.426544 148.060898,298.575287 143.375900,293.346313 
	C135.390793,284.434052 126.833313,276.028809 118.404427,267.521362 
	C107.739914,256.757446 97.253922,245.791733 86.158730,235.486023 
	C73.476318,223.706055 73.140968,208.689301 78.437050,198.248413 
	C85.229401,184.857742 97.171120,179.695969 114.187317,182.680084 
M87.053337,298.721863 
	C94.512909,301.357300 101.313690,297.913055 102.214424,291.043579 
	C102.903854,285.785614 99.828117,280.499817 95.311729,279.181000 
	C90.122261,277.665619 84.738380,279.892548 82.167046,284.618042 
	C79.599785,289.336060 81.092812,294.204651 87.053337,298.721863 
z"/>
<path fill="#2CA4AA" opacity="1.000000" stroke="none" 
	d="
M189.268707,247.702606 
	C194.249954,250.360046 197.274689,253.958649 197.757462,259.752960 
	C193.436203,260.403839 190.046829,261.047607 186.847656,256.634247 
	C182.479340,250.608017 172.296722,252.579285 169.027740,259.655914 
	C166.550232,265.019226 166.444473,270.600647 168.680420,276.124603 
	C170.393921,280.357880 173.545837,282.834991 178.134506,283.140289 
	C182.598694,283.437286 185.799377,281.770355 188.638260,277.906097 
	C190.086304,275.935059 194.068954,275.826080 197.188812,274.780640 
	C197.650238,283.637970 191.256271,289.945221 182.367142,290.746277 
	C172.621689,291.624451 164.753967,287.732574 160.984650,280.169128 
	C156.569916,271.310608 157.938019,258.630035 164.027328,251.967422 
	C169.805603,245.645142 179.489288,243.928635 189.268707,247.702606 
z"/>
<path fill="#2EA5AB" opacity="1.000000" stroke="none" 
	d="
M281.857635,288.789978 
	C276.398895,291.092896 273.900299,290.568176 270.543732,286.658020 
	C267.799225,283.460907 265.062286,280.257233 262.322021,277.056458 
	C261.901031,277.208130 261.480042,277.359772 261.059052,277.511444 
	C260.840912,281.529968 260.622772,285.548462 260.389771,289.840698 
	C257.887268,289.840698 255.635025,289.840698 252.684250,289.840698 
	C252.684250,283.108002 252.683273,276.520691 252.684509,269.933380 
	C252.685577,264.269989 252.692520,258.606598 252.690842,252.943207 
	C252.688721,245.829224 252.686066,245.829224 260.706909,246.806778 
	C260.706909,253.513809 260.706909,260.351135 260.706909,268.225555 
	C267.769440,263.946808 271.185211,254.468872 281.410309,258.867462 
	C276.757050,262.899170 272.273651,266.783691 267.458984,270.955200 
	C272.772186,277.504120 277.231201,283.000183 281.857635,288.789978 
z"/>
<path fill="#30A3AA" opacity="1.000000" stroke="none" 
	d="
M413.125854,264.083679 
	C410.259338,266.593140 407.635345,268.851227 404.824310,271.270264 
	C410.234650,277.828247 414.850800,283.423584 419.593292,289.172028 
	C412.120605,291.023376 410.907806,290.633606 406.541443,285.252289 
	C404.159393,282.316589 401.773743,279.383789 398.226379,276.762085 
	C398.226379,280.919739 398.226379,285.077393 398.226379,289.634277 
	C395.257874,289.634277 393.022827,289.634277 389.935638,289.634277 
	C389.935638,282.707825 389.935608,275.617096 389.935608,268.526367 
	C389.935608,261.380798 389.935638,254.235260 389.935638,246.709076 
	C392.571106,246.709076 394.804138,246.709076 397.875549,246.709076 
	C397.875549,253.540878 397.875549,260.380768 397.875549,268.357697 
	C404.988159,263.970673 408.368256,254.414795 419.303680,259.238373 
	C417.169922,260.889862 415.269135,262.361084 413.125854,264.083679 
z"/>
<path fill="#2CA4AA" opacity="1.000000" stroke="none" 
	d="
M369.018860,257.055542 
	C369.455780,257.082184 369.892700,257.108826 370.948273,257.308533 
	C380.376343,259.385284 382.909210,262.377106 383.044952,271.490204 
	C383.136444,277.630890 382.979401,283.775269 382.933533,289.917999 
	C382.933533,289.917999 382.987610,290.000244 382.530029,289.955994 
	C379.531128,289.433044 376.989838,288.954376 375.503235,288.674347 
	C370.118591,289.232605 365.543152,289.706970 360.967712,290.181366 
	C360.282043,289.788910 359.596375,289.396454 358.498596,288.662537 
	C357.770447,288.113220 357.454407,287.905365 357.138367,287.697510 
	C356.848907,287.266113 356.559479,286.834686 356.070129,285.830078 
	C355.561981,283.505951 355.253662,281.754974 354.945374,280.004028 
	C355.022339,279.572235 355.099274,279.140411 355.398926,278.199707 
	C355.809052,277.157227 355.996521,276.623596 356.183960,276.089996 
	C356.677032,275.556885 357.170105,275.023743 358.150970,274.251526 
	C359.502808,273.453583 360.366882,272.894714 361.230927,272.335846 
	C361.230927,272.335846 361.282074,272.304779 361.700226,272.276245 
	C366.471100,271.324432 370.823822,270.401123 376.473450,269.202728 
	C374.774597,266.978424 373.781494,264.395599 372.424622,264.187714 
	C370.110870,263.833282 366.609802,264.149139 365.322632,265.652222 
	C362.668518,268.751434 360.108246,268.206329 355.894226,267.391205 
	C358.051514,264.279236 359.777740,261.789062 361.503998,259.298889 
	C361.503998,259.298889 361.801178,259.301697 362.291534,259.178711 
	C364.860870,258.389008 366.939850,257.722260 369.018860,257.055542 
M369.990906,284.150269 
	C374.101624,282.704102 375.911133,279.887085 375.417816,275.148193 
	C372.822937,275.673676 370.367157,275.711731 368.383972,276.699097 
	C366.312988,277.730164 363.252655,279.604858 363.173370,281.234741 
	C362.990784,284.988403 366.554382,284.328369 369.990906,284.150269 
z"/>
<path fill="#31A5AB" opacity="1.000000" stroke="none" 
	d="
M346.031891,272.866180 
	C349.913300,275.117920 350.875580,278.624237 350.037445,282.727020 
	C349.213379,286.760803 346.319183,288.748566 342.583435,289.973297 
	C335.243927,292.379425 322.726501,289.392090 322.485535,279.578613 
	C324.434296,278.942322 325.975739,278.697510 327.517181,278.452667 
	C327.636078,278.601624 327.754974,278.750549 328.279480,279.054016 
	C329.117950,279.476715 329.550781,279.744873 329.990875,280.007507 
	C329.998169,280.001953 329.987244,280.016510 330.038452,280.344604 
	C331.008179,281.510498 331.926758,282.348267 332.872864,283.189453 
	C332.900421,283.192841 332.862244,283.153076 333.075745,283.438110 
	C335.184662,283.900543 337.174164,284.526855 338.954163,284.153778 
	C341.875641,283.541351 343.900513,281.984253 340.910400,278.578857 
	C340.176575,278.176880 339.631989,277.995605 338.819031,277.556244 
	C334.345062,275.980835 330.139526,274.663483 325.933960,273.346130 
	C325.933960,273.346130 325.578522,273.065186 325.280945,272.687653 
	C324.442261,271.668854 323.901184,271.027588 323.360107,270.386322 
	C323.277222,269.781708 323.194305,269.177063 323.089783,267.912567 
	C323.033691,266.503418 322.999176,265.754120 322.964661,265.004852 
	C323.077148,264.680817 323.189636,264.356812 323.548431,263.563843 
	C324.896210,261.758331 325.997742,260.421783 327.099243,259.085205 
	C327.099243,259.085205 326.999664,259.022461 327.406952,259.021667 
	C329.886169,258.372894 331.958069,257.724915 334.029968,257.076904 
	C335.072845,257.125000 336.115723,257.173065 337.797485,257.414185 
	C339.293579,257.719879 340.150787,257.832581 341.007965,257.945282 
	C341.007965,257.945282 341.349670,258.128021 341.692627,258.341064 
	C342.355988,258.658386 342.676422,258.762604 342.996826,258.866852 
	C344.136414,259.805054 345.276031,260.743286 346.732544,262.111908 
	C347.327393,262.748322 347.605286,262.954315 347.883179,263.160309 
	C347.883179,263.160309 347.908417,263.070007 347.883331,263.383606 
	C348.200348,264.171143 348.542450,264.645050 348.884521,265.118988 
	C348.884521,265.118988 348.938812,264.989441 348.894958,265.451721 
	C347.142700,268.646881 344.089172,268.788422 341.473083,266.716858 
	C339.790192,265.384277 337.672974,264.096863 335.635193,263.881866 
	C334.121368,263.722168 332.422394,265.317474 330.805908,266.131104 
	C332.039032,267.403381 333.051483,269.286591 334.548798,269.827393 
	C338.258423,271.167267 342.189667,271.893433 346.031891,272.866180 
z"/>
<path fill="#2CA4AA" opacity="1.000000" stroke="none" 
	d="
M227.971893,289.863159 
	C226.671448,289.863159 225.371017,289.863159 223.358246,289.863159 
	C223.358246,283.724731 223.463104,277.792297 223.319351,271.865875 
	C223.231644,268.249786 223.543106,264.111572 218.092087,263.938293 
	C213.820724,263.802490 211.664124,266.258392 211.476654,272.035461 
	C211.288681,277.827972 211.435333,283.631378 211.435333,289.743073 
	C208.670288,289.743073 206.419861,289.743073 203.746017,289.743073 
	C203.746017,275.480225 203.746017,261.284241 203.746017,246.711639 
	C206.073853,246.711639 208.306870,246.711639 211.147461,246.711639 
	C211.147461,250.954849 211.147461,255.184052 211.147461,259.187683 
	C212.030380,259.531799 212.403687,259.821198 212.590942,259.729706 
	C224.118973,254.097916 231.014191,258.149567 231.234222,270.935028 
	C231.341827,277.188141 230.917603,283.450439 230.428162,289.354980 
	C230.082870,281.974060 229.972488,274.946075 230.028564,267.919464 
	C230.067474,263.042084 227.312805,262.685120 224.295853,263.246613 
	C224.538605,270.302765 224.550827,277.009796 225.125198,283.668365 
	C225.309006,285.799286 226.980865,287.801849 227.971893,289.863159 
M217.441345,259.734619 
	C218.694809,263.869781 220.775238,261.819702 222.851700,259.608978 
	C221.251846,259.484222 219.651978,259.359497 217.441345,259.734619 
z"/>
<path fill="#31A3A9" opacity="1.000000" stroke="none" 
	d="
M303.970215,251.067215 
	C303.545685,247.511902 304.628174,246.204712 308.022888,246.170822 
	C311.734131,246.133804 312.056671,248.076462 311.932678,250.879135 
	C311.838318,253.011795 311.913940,255.151978 311.913940,257.574982 
	C313.971130,257.817474 315.710876,258.022583 317.698242,258.256866 
	C317.698242,260.234497 317.698242,261.987366 317.698242,263.918304 
	C315.855682,264.189178 314.100983,264.447113 311.942169,264.764465 
	C311.942169,270.025513 311.561737,275.206055 312.163971,280.269684 
	C312.355347,281.878876 315.162598,283.177002 317.658264,285.409576 
	C317.658264,285.749115 317.658264,287.503326 317.658264,290.028717 
	C315.521179,290.028717 313.424652,290.130096 311.341095,290.008820 
	C306.042297,289.700348 304.150726,287.885986 304.011475,282.606140 
	C303.858368,276.801636 303.976562,270.989990 303.976562,265.016907 
	C302.329681,264.557861 300.947876,264.172760 299.582214,263.792114 
	C298.354340,260.111725 298.943268,257.565186 303.969452,257.619751 
	C303.969452,255.430450 303.969452,253.473755 303.970215,251.067215 
z"/>
<path fill="#31A3A9" opacity="1.000000" stroke="none" 
	d="
M237.919525,267.044922 
	C237.918961,263.923431 237.918961,261.295319 237.918961,258.310364 
	C240.535233,258.310364 242.762405,258.310364 245.425995,258.310364 
	C245.425995,268.628601 245.425995,278.959351 245.425995,289.678894 
	C243.172501,289.678894 240.952972,289.678894 237.920090,289.678894 
	C237.920090,282.323669 237.920090,274.931000 237.919525,267.044922 
z"/>
<path fill="#A4C572" opacity="1.000000" stroke="none" 
	d="
M177.879974,303.648926 
	C179.342026,301.638733 180.671844,299.985504 182.001663,298.332306 
	C183.001205,299.871399 184.240494,301.308167 184.950272,302.970947 
	C186.419632,306.413116 187.607361,309.975494 188.536072,314.409943 
	C183.803635,310.008148 179.387589,311.760498 174.977875,314.834320 
	C174.736984,314.400177 174.496078,313.966064 174.255188,313.531921 
	C175.419373,310.356567 176.583542,307.181244 177.879974,303.648926 
z"/>
<path fill="#25A2A8" opacity="1.000000" stroke="none" 
	d="
M228.308823,289.937988 
	C226.980865,287.801849 225.309006,285.799286 225.125198,283.668365 
	C224.550827,277.009796 224.538605,270.302765 224.295853,263.246613 
	C227.312805,262.685120 230.067474,263.042084 230.028564,267.919464 
	C229.972488,274.946075 230.082870,281.974060 230.059143,289.401489 
	C229.545944,289.871979 229.095840,289.942413 228.308823,289.937988 
z"/>
<path fill="#9EBF69" opacity="1.000000" stroke="none" 
	d="
M265.093872,299.090515 
	C268.582306,298.770294 271.797089,298.770294 275.011841,298.770294 
	C275.161346,299.322845 275.310822,299.875397 275.460297,300.427917 
	C273.064484,301.227051 270.668671,302.026184 266.910553,303.279724 
	C270.081909,304.321655 272.177887,305.010254 275.622253,306.141846 
	C272.638611,307.397125 270.611694,308.249878 268.584808,309.102631 
	C268.563812,309.469971 268.542847,309.837311 268.521851,310.204651 
	C270.798401,310.812317 273.074951,311.419983 275.351471,312.027649 
	C275.329742,312.660858 275.308014,313.294067 275.286285,313.927277 
	C272.249756,313.997253 269.100891,314.543518 266.239899,313.868896 
	C265.288544,313.644562 264.738281,310.310638 264.604309,308.357178 
	C264.401154,305.393890 264.721985,302.394714 265.093872,299.090515 
z"/>
<path fill="#1FA0A8" opacity="1.000000" stroke="none" 
	d="
M286.886078,263.985718 
	C286.859680,262.925232 286.833282,261.864777 287.200012,260.388367 
	C289.305786,260.130463 291.018494,260.288513 293.070465,260.477844 
	C293.070465,269.005280 293.178864,277.264923 292.948273,285.515137 
	C292.915405,286.690430 291.239075,287.819763 290.323364,288.970367 
	C289.522522,287.819885 288.315704,286.764130 288.019714,285.495819 
	C287.616302,283.767456 287.986664,281.872589 287.886169,280.056793 
	C287.589478,274.697723 287.224396,269.342468 286.886078,263.985718 
z"/>
<path fill="#5CB4B8" opacity="1.000000" stroke="none" 
	d="
M286.704010,264.347198 
	C287.224396,269.342468 287.589478,274.697723 287.886169,280.056793 
	C287.986664,281.872589 287.616302,283.767456 288.019714,285.495819 
	C288.315704,286.764130 289.522522,287.819885 290.323364,288.970367 
	C291.239075,287.819763 292.915405,286.690430 292.948273,285.515137 
	C293.178864,277.264923 293.070465,269.005280 293.070465,260.477844 
	C291.018494,260.288513 289.305786,260.130463 287.230042,259.991150 
	C289.104401,259.075867 291.341797,258.141907 294.604614,256.779907 
	C294.604614,268.801727 294.604614,279.151093 294.604614,289.982330 
	C291.946808,290.104095 289.541473,290.214325 286.521942,290.352661 
	C286.521942,281.500671 286.521942,273.104675 286.704010,264.347198 
z"/>
<path fill="#9EBF69" opacity="1.000000" stroke="none" 
	d="
M159.506973,310.919037 
	C159.496078,310.744202 159.485184,310.569397 159.741287,309.950897 
	C161.109161,309.936615 162.178131,310.567596 163.318420,310.748138 
	C165.018646,311.017365 166.769165,310.968842 168.498291,311.055542 
	C168.609970,310.332092 168.721649,309.608673 168.833344,308.885223 
	C165.932312,307.871033 163.031296,306.856842 160.130280,305.842651 
	C158.913559,299.564819 161.842850,296.755432 167.587799,298.690369 
	C171.385773,299.969543 171.804031,301.613861 169.086105,304.890076 
	C171.842896,307.598633 173.508301,310.415100 168.787140,313.690613 
	C165.257324,312.941620 162.382156,311.930328 159.506973,310.919037 
M164.883820,303.481049 
	C165.548660,303.552155 166.213516,303.623260 166.878342,303.694366 
	C166.848846,303.286835 166.839752,302.528259 166.786743,302.525177 
	C166.147827,302.488098 165.502411,302.562622 164.883820,303.481049 
z"/>
<path fill="#A4C572" opacity="1.000000" stroke="none" 
	d="
M191.658279,298.496307 
	C193.112289,299.538330 194.524994,300.563507 195.353470,301.940216 
	C196.303223,303.518372 196.734650,305.408508 197.868271,308.437775 
	C199.181061,304.777252 199.800491,302.418060 200.894958,300.304932 
	C201.341858,299.442078 202.817719,299.112183 203.825455,298.539825 
	C204.027863,299.571564 204.645813,300.739502 204.360107,301.611267 
	C203.178528,305.216614 201.983612,308.871552 200.206207,312.194031 
	C199.690033,313.158966 195.879593,313.533813 195.837997,313.411438 
	C194.182495,308.541107 192.787491,303.582214 191.658279,298.496307 
z"/>
<path fill="#9EBF69" opacity="1.000000" stroke="none" 
	d="
M254.900299,304.007202 
	C256.830444,304.816833 258.662750,305.211700 261.433807,305.808838 
	C260.010193,306.864197 259.354950,307.762054 258.671722,307.783905 
	C255.952438,307.871002 254.260574,308.661438 254.268448,311.810883 
	C254.270386,312.586853 253.046249,313.365875 252.385773,314.143524 
	C251.758835,313.187653 250.740158,312.289429 250.589127,311.263489 
	C250.303040,309.320190 250.328278,307.280701 250.568222,305.323364 
	C250.850311,303.022125 250.957275,299.192657 252.094589,298.801575 
	C254.873520,297.846039 258.202393,298.489868 261.309906,298.489868 
	C261.368225,299.041779 261.426575,299.593689 261.484924,300.145599 
	C259.257446,301.294556 257.029938,302.443481 254.900299,304.007202 
z"/>
<path fill="#D5F4F5" opacity="1.000000" stroke="none" 
	d="
M361.118317,259.234131 
	C359.777740,261.789062 358.051514,264.279236 355.894226,267.391205 
	C360.108246,268.206329 362.668518,268.751434 365.322632,265.652222 
	C366.609802,264.149139 370.110870,263.833282 372.424622,264.187714 
	C373.781494,264.395599 374.774597,266.978424 376.473450,269.202728 
	C370.823822,270.401123 366.471100,271.324432 361.729614,272.281921 
	C360.919312,271.628601 360.635376,270.777374 360.049774,270.285004 
	C358.467957,268.955048 356.757782,267.777802 355.098541,266.539948 
	C356.976562,264.083069 358.854584,261.626190 361.118317,259.234131 
z"/>
<path fill="#9EBF69" opacity="1.000000" stroke="none" 
	d="
M213.064285,304.832336 
	C214.593063,305.079498 216.121841,305.326660 217.650620,305.573822 
	C217.669937,305.951080 217.689255,306.328339 217.708572,306.705566 
	C215.971344,307.312531 214.234131,307.919464 210.788467,309.123322 
	C214.219696,310.444061 216.415054,311.289124 218.610413,312.134186 
	C218.612213,312.684052 218.614014,313.233917 218.615814,313.783783 
	C215.357925,313.937256 212.100021,314.090698 208.001846,314.283752 
	C208.001846,309.483551 207.765884,305.216217 208.189804,301.015472 
	C208.280670,300.114807 210.760635,299.455231 212.979767,298.741058 
	C214.915115,298.706512 216.010727,298.615509 217.106339,298.524506 
	C217.273285,298.600800 217.440247,298.677094 217.853119,299.202820 
	C218.112534,300.122437 218.126022,300.592621 218.139496,301.062805 
	C217.966187,301.134033 217.792877,301.205261 216.956573,301.262573 
	C215.005997,301.242310 213.685287,301.066132 212.446167,301.307983 
	C211.901978,301.414215 211.027145,302.631500 211.164383,302.894531 
	C211.564835,303.661957 212.399704,304.202728 213.064285,304.832336 
z"/>
<path fill="#DAF8F9" opacity="1.000000" stroke="none" 
	d="
M346.031616,272.496643 
	C342.189667,271.893433 338.258423,271.167267 334.548798,269.827393 
	C333.051483,269.286591 332.039032,267.403381 330.805908,266.131104 
	C332.422394,265.317474 334.121368,263.722168 335.635193,263.881866 
	C337.672974,264.096863 339.790192,265.384277 341.473083,266.716858 
	C344.089172,268.788422 347.142700,268.646881 348.852264,265.507507 
	C351.950958,266.196167 351.599182,267.456299 349.175232,269.097351 
	C347.987793,269.901306 347.070740,271.104553 346.031616,272.496643 
z"/>
<path fill="#9EBF69" opacity="1.000000" stroke="none" 
	d="
M233.091248,304.960205 
	C231.199951,311.401825 236.769180,310.769958 240.037247,312.179596 
	C239.892685,312.711670 239.748108,313.243744 239.603531,313.775818 
	C236.583145,313.976685 233.562744,314.177551 230.186813,314.402069 
	C230.060135,308.525665 228.418350,303.316620 230.766022,298.478882 
	C231.387817,298.482147 232.009598,298.485443 232.631393,298.488708 
	C232.783798,300.495026 232.936203,302.501373 233.091248,304.960205 
z"/>
<path fill="#D5F4F5" opacity="1.000000" stroke="none" 
	d="
M383.309875,289.886719 
	C382.979401,283.775269 383.136444,277.630890 383.044952,271.490204 
	C382.909210,262.377106 380.376343,259.385284 371.274811,257.269287 
	C376.494446,255.220703 383.334106,259.029724 383.837463,264.723175 
	C384.518646,272.427399 384.625793,280.184174 384.873352,287.921753 
	C384.893524,288.553040 384.101074,289.210297 383.309875,289.886719 
z"/>
<path fill="#4BA5A8" opacity="1.000000" stroke="none" 
	d="
M237.277985,251.988129 
	C236.310913,248.531677 237.503616,246.152084 240.646088,245.876907 
	C242.431046,245.720612 245.215057,246.736267 245.975784,248.101089 
	C246.686493,249.376205 245.944336,252.527512 244.734085,253.582626 
	C242.293716,255.710190 239.496765,254.941010 237.277985,251.988129 
M244.662735,249.504929 
	C242.957916,249.196808 241.253082,248.888687 239.548264,248.580566 
	C239.632523,249.765579 239.716782,250.950592 239.801056,252.135620 
	C241.444931,251.507538 243.088791,250.879471 244.662735,249.504929 
z"/>
<path fill="#4BA5A8" opacity="1.000000" stroke="none" 
	d="
M287.894592,254.311707 
	C285.997253,252.300354 283.206146,250.401001 286.093353,248.095245 
	C287.804626,246.728592 290.721771,246.299408 293.002075,246.503891 
	C293.894165,246.583893 295.414948,250.808533 295.137115,251.004807 
	C293.028046,252.494751 290.543854,253.453674 287.894592,254.311707 
M292.447510,247.926437 
	C290.918152,248.175995 289.346680,248.304001 287.903778,248.803314 
	C287.681763,248.880157 287.685120,251.087677 288.232117,251.560944 
	C289.053192,252.271393 291.227509,252.873367 291.457092,252.549835 
	C292.274902,251.397324 292.514099,249.834229 292.447510,247.926437 
z"/>
<path fill="#D5F4F5" opacity="1.000000" stroke="none" 
	d="
M361.077698,290.556427 
	C365.543152,289.706970 370.118591,289.232605 375.503235,288.674347 
	C376.989838,288.954376 379.531128,289.433044 382.496246,289.919617 
	C382.343323,290.586700 381.770752,291.813812 381.189178,291.818146 
	C374.743561,291.865692 368.296417,291.730713 361.850525,291.603790 
	C361.625244,291.599396 361.408447,291.165314 361.077698,290.556427 
z"/>
<path fill="#9EBF69" opacity="1.000000" stroke="none" 
	d="
M246.111786,305.087708 
	C246.108978,308.344360 246.108978,311.131989 246.108978,313.919586 
	C242.296951,311.245911 242.167267,301.706848 245.424103,297.379333 
	C245.718842,300.469452 245.916733,302.544067 246.111786,305.087708 
z"/>
<path fill="#E7F8D4" opacity="1.000000" stroke="none" 
	d="
M160.004791,306.138153 
	C163.031296,306.856842 165.932312,307.871033 168.833344,308.885223 
	C168.721649,309.608673 168.609970,310.332092 168.498291,311.055542 
	C166.769165,310.968842 165.018646,311.017365 163.318420,310.748138 
	C162.178131,310.567596 161.109161,309.936615 159.697845,309.691772 
	C159.551376,308.728790 159.715347,307.581207 160.004791,306.138153 
z"/>
<path fill="#DAF8F9" opacity="1.000000" stroke="none" 
	d="
M326.007263,273.702271 
	C330.139526,274.663483 334.345062,275.980835 338.595764,277.856842 
	C336.808197,278.136444 334.876221,278.132385 333.165527,277.515106 
	C330.467926,276.541626 329.944397,277.784210 329.983582,280.013031 
	C329.550781,279.744873 329.117950,279.476715 328.564941,279.069183 
	C327.656708,277.305969 326.868622,275.682159 326.007263,273.702271 
z"/>
<path fill="#E7F8D4" opacity="1.000000" stroke="none" 
	d="
M159.232925,311.025208 
	C162.382156,311.930328 165.257324,312.941620 168.552856,313.941650 
	C166.827759,317.986237 163.761581,315.033630 161.223633,314.677307 
	C160.320572,314.550537 159.705444,312.372833 159.232925,311.025208 
z"/>
<path fill="#E7F8D4" opacity="1.000000" stroke="none" 
	d="
M213.103149,304.504639 
	C212.399704,304.202728 211.564835,303.661957 211.164383,302.894531 
	C211.027145,302.631500 211.901978,301.414215 212.446167,301.307983 
	C213.685287,301.066132 215.005997,301.242310 216.703522,301.384888 
	C215.789642,302.406403 214.465820,303.291656 213.103149,304.504639 
z"/>
<path fill="#D5F4F5" opacity="1.000000" stroke="none" 
	d="
M368.775787,256.776978 
	C366.939850,257.722260 364.860870,258.389008 362.408081,259.086548 
	C363.098724,255.510773 365.722687,255.773712 368.775787,256.776978 
z"/>
<path fill="#DAF8F9" opacity="1.000000" stroke="none" 
	d="
M333.790314,256.792114 
	C331.958069,257.724915 329.886169,258.372894 327.445679,259.066010 
	C328.098297,255.417313 330.754028,255.787125 333.790314,256.792114 
z"/>
<path fill="#DAF8F9" opacity="1.000000" stroke="none" 
	d="
M326.700134,259.055786 
	C325.997742,260.421783 324.896210,261.758331 323.534973,263.305603 
	C322.759766,260.992584 323.265167,259.156830 326.700134,259.055786 
z"/>
<path fill="#D5F4F5" opacity="1.000000" stroke="none" 
	d="
M354.684723,280.265381 
	C355.253662,281.754974 355.561981,283.505951 355.895660,285.635925 
	C355.422058,284.185577 354.923065,282.356171 354.684723,280.265381 
z"/>
<path fill="#DAF8F9" opacity="1.000000" stroke="none" 
	d="
M340.955078,257.618927 
	C340.150787,257.832581 339.293579,257.719879 338.188812,257.392700 
	C338.928223,257.216339 339.915222,257.254456 340.955078,257.618927 
z"/>
<path fill="#E7F8D4" opacity="1.000000" stroke="none" 
	d="
M217.012680,298.266876 
	C216.010727,298.615509 214.915115,298.706512 213.419250,298.685486 
	C214.319000,298.385406 215.619019,298.197327 217.012680,298.266876 
z"/>
<path fill="#DAF8F9" opacity="1.000000" stroke="none" 
	d="
M327.099030,278.319519 
	C325.975739,278.697510 324.434296,278.942322 322.491455,279.206299 
	C323.620331,278.879089 325.150604,278.532715 327.099030,278.319519 
z"/>
<path fill="#D5F4F5" opacity="1.000000" stroke="none" 
	d="
M360.864136,272.238678 
	C360.366882,272.894714 359.502808,273.453583 358.323853,274.039093 
	C358.838440,273.424347 359.667877,272.782928 360.864136,272.238678 
z"/>
<path fill="#D5F4F5" opacity="1.000000" stroke="none" 
	d="
M355.871246,276.088196 
	C355.996521,276.623596 355.809052,277.157227 355.396576,277.870178 
	C355.300537,277.395142 355.429535,276.740784 355.871246,276.088196 
z"/>
<path fill="#E7F8D4" opacity="1.000000" stroke="none" 
	d="
M218.421860,301.013428 
	C218.126022,300.592621 218.112534,300.122437 218.110931,299.299500 
	C218.316605,299.619202 218.510406,300.291626 218.421860,301.013428 
z"/>
<path fill="#DAF8F9" opacity="1.000000" stroke="none" 
	d="
M323.278992,270.767944 
	C323.901184,271.027588 324.442261,271.668854 325.064240,272.621582 
	C324.496033,272.338531 323.846924,271.744049 323.278992,270.767944 
z"/>
<path fill="#DAF8F9" opacity="1.000000" stroke="none" 
	d="
M322.722961,265.187439 
	C322.999176,265.754120 323.033691,266.503418 322.994568,267.621613 
	C322.774384,267.117035 322.627838,266.243500 322.722961,265.187439 
z"/>
<path fill="#DAF8F9" opacity="1.000000" stroke="none" 
	d="
M348.913239,264.796387 
	C348.542450,264.645050 348.200348,264.171143 347.837677,263.394287 
	C348.192047,263.552155 348.567017,264.013000 348.913239,264.796387 
z"/>
<path fill="#DAF8F9" opacity="1.000000" stroke="none" 
	d="
M342.856262,258.645142 
	C342.676422,258.762604 342.355988,258.658386 341.886353,258.341705 
	C342.063324,258.227325 342.389496,258.325378 342.856262,258.645142 
z"/>
<path fill="#D5F4F5" opacity="1.000000" stroke="none" 
	d="
M357.210388,287.998260 
	C357.454407,287.905365 357.770447,288.113220 358.211639,288.581818 
	C357.985321,288.661407 357.633881,288.480194 357.210388,287.998260 
z"/>
<path fill="#DAF8F9" opacity="1.000000" stroke="none" 
	d="
M347.835205,262.896667 
	C347.605286,262.954315 347.327393,262.748322 347.000336,262.278473 
	C347.229858,262.220734 347.508575,262.426880 347.835205,262.896667 
z"/>
<path fill="#FAFDF4" opacity="1.000000" stroke="none" 
	d="
M86.715927,298.536560 
	C81.092812,294.204651 79.599785,289.336060 82.167046,284.618042 
	C84.738380,279.892548 90.122261,277.665619 95.311729,279.181000 
	C99.828117,280.499817 102.903854,285.785614 102.214424,291.043579 
	C101.313690,297.913055 94.512909,301.357300 86.715927,298.536560 
z"/>
<path fill="#DAF8F9" opacity="1.000000" stroke="none" 
	d="
M369.578308,284.225708 
	C366.554382,284.328369 362.990784,284.988403 363.173370,281.234741 
	C363.252655,279.604858 366.312988,277.730164 368.383972,276.699097 
	C370.367157,275.711731 372.822937,275.673676 375.417816,275.148193 
	C375.911133,279.887085 374.101624,282.704102 369.578308,284.225708 
z"/>
<path fill="#FEFFFF" opacity="1.000000" stroke="none" 
	d="
M329.990875,280.007507 
	C329.944397,277.784210 330.467926,276.541626 333.165527,277.515106 
	C334.876221,278.132385 336.808197,278.136444 338.864166,278.114899 
	C339.631989,277.995605 340.176575,278.176880 340.842316,278.963867 
	C339.715973,284.048676 335.891266,282.701447 332.862244,283.153076 
	C332.862244,283.153076 332.900421,283.192841 332.897034,282.832703 
	C331.924866,281.653900 330.956055,280.835205 329.987244,280.016510 
	C329.987244,280.016510 329.998169,280.001953 329.990875,280.007507 
z"/>
<path fill="#DAF8F9" opacity="1.000000" stroke="none" 
	d="
M333.075745,283.438110 
	C335.891266,282.701447 339.715973,284.048676 341.031555,279.184509 
	C343.900513,281.984253 341.875641,283.541351 338.954163,284.153778 
	C337.174164,284.526855 335.184662,283.900543 333.075745,283.438110 
z"/>
<path fill="#DAF8F9" opacity="1.000000" stroke="none" 
	d="
M330.038452,280.344604 
	C330.956055,280.835205 331.924866,281.653900 332.869507,282.829315 
	C331.926758,282.348267 331.008179,281.510498 330.038452,280.344604 
z"/>
<path fill="#25A2A8" opacity="1.000000" stroke="none" 
	d="
M217.746735,259.484680 
	C219.651978,259.359497 221.251846,259.484222 222.851700,259.608978 
	C220.775238,261.819702 218.694809,263.869781 217.746735,259.484680 
z"/>
<path fill="#FEFFFF" opacity="1.000000" stroke="none" 
	d="
M164.871246,303.044556 
	C165.502411,302.562622 166.147827,302.488098 166.786743,302.525177 
	C166.839752,302.528259 166.848846,303.286835 166.878357,303.694366 
	C166.213516,303.623260 165.548660,303.552155 164.871246,303.044556 
z"/>
<path fill="#1FA0A8" opacity="1.000000" stroke="none" 
	d="
M244.697693,249.878174 
	C243.088791,250.879471 241.444931,251.507538 239.801056,252.135620 
	C239.716782,250.950592 239.632523,249.765579 239.548264,248.580566 
	C241.253082,248.888687 242.957916,249.196808 244.697693,249.878174 
z"/>
<path fill="#1FA0A8" opacity="1.000000" stroke="none" 
	d="
M292.709900,248.176514 
	C292.514099,249.834229 292.274902,251.397324 291.457092,252.549835 
	C291.227509,252.873367 289.053192,252.271393 288.232117,251.560944 
	C287.685120,251.087677 287.681763,248.880157 287.903778,248.803314 
	C289.346680,248.304001 290.918152,248.175995 292.709900,248.176514 
z"/>
</svg>